<?xml version="1.0" encoding="UTF-8"?>
<svg version="1.1" xmlns="http://www.w3.org/2000/svg" width="32" height="32">
<path d="M0 0 C3.12578143 1.6720747 5.39281175 3.7856235 7 7 C7.51512617 11.09157355 7.94367269 15.23589546 5.953125 18.95703125 C3.55501226 21.85592636 1.60351712 23.79811835 -2.171875 24.2734375 C-9.98876369 24.58137554 -9.98876369 24.58137554 -13.5625 21.625 C-17.3057723 17.59378368 -17.39037018 14.90519941 -17.359375 9.55078125 C-16.78039966 5.44131496 -15.00085071 3.78650423 -12 1 C-8.27533151 -0.86233425 -4.05504687 -0.57130829 0 0 Z M-14 6 C-15.60086627 9.20173254 -15.49917089 12.52577059 -15 16 C-13.20636089 18.8100346 -11.98119065 20.50940468 -9 22 C-3.18654053 22.53365513 -3.18654053 22.53365513 1.9375 20.125 C5.09695358 16.8698054 5.33421243 14.57586762 5.29296875 10.0390625 C4.83745033 6.86865433 3.24684343 5.1807598 1 3 C-4.71872108 0.14063946 -9.77770087 1.64975241 -14 6 Z " fill="#F9F9F2" transform="translate(21,4)"/>
<path d="M0 0 C2.97 0 5.94 0 9 0 C8.67 0.99 8.34 1.98 8 3 C6.68 3 5.36 3 4 3 C3.67 3.99 3.34 4.98 3 6 C4.32 6 5.64 6 7 6 C7 6.99 7 7.98 7 9 C5.68 9 4.36 9 3 9 C3 10.32 3 11.64 3 13 C4.65 13 6.3 13 8 13 C8.33 13.99 8.66 14.98 9 16 C6.03 16 3.06 16 0 16 C0 10.72 0 5.44 0 0 Z " fill="#F9F9F2" transform="translate(12,8)"/>
</svg>
